<svg width="698" height="571" viewBox="0 0 698 571" fill="none" xmlns="http://www.w3.org/2000/svg">
<path d="M572 34V68H588H604V284.667V501.333H588H572V535.333V569.333H634.667H697.333V284.667V1.09971e-05H634.667H572V34Z" fill="black"/>
<path d="M0 286.667V570.667H63.3333H126.667V536.667V502.667H110.667H94.6667V286.667V70.6666H110.667H126.667V36.6666V2.6666H63.3333H0V286.667Z" fill="black"/>
<path d="M165.333 185.333V321.333L233.734 321.6L302 322L302.4 337.6L302.8 353.333H224H145.333V437.333V521.333H349.334H553.334V437.333V353.333H474.667H395.867L396.267 337.6L396.667 322L465.067 321.6L533.334 321.333V185.333V49.3332H349.334H165.333V185.333ZM501.334 186V290.667H349.334H197.333V186V81.3332H349.334H501.334V186ZM365.067 337.6L365.467 353.333H349.334H333.334V338.267C333.334 329.867 333.734 322.667 334.267 322.133C334.8 321.733 341.867 321.467 349.867 321.6L364.667 322L365.067 337.6ZM522.667 437.333V489.333H349.334H176V437.333V385.333H349.334H522.667V437.333Z" fill="black"/>
<path d="M229.333 185.333V258.667H349.334H469.334V185.333V112H349.334H229.333V185.333ZM438.667 186V228H349.334H260V186V144H349.334H438.667V186Z" fill="black"/>
<path d="M471.2 418.4C464 421.867 460 428.4 460 436.933C460 457.2 485.867 465.467 497.6 449.067C501.733 443.2 502 431.2 497.867 425.867C491.067 416.667 481.067 413.867 471.2 418.4Z" fill="black"/>
<path d="M213.333 437.333V453.333H234H254.667V437.333V421.333H234H213.333V437.333Z" fill="black"/>
</svg>
